<svg xmlns="http://www.w3.org/2000/svg" xmlns:xlink="http://www.w3.org/1999/xlink" width="500" zoomAndPan="magnify" viewBox="0 0 375 374.999991" height="500" preserveAspectRatio="xMidYMid meet" version="1.0"><defs><g/><clipPath id="eac2b721c5"><path d="M 107.261719 96 L 267.761719 96 L 267.761719 183 L 107.261719 183 Z M 107.261719 96 " clip-rule="nonzero"/></clipPath></defs><path fill="#2036b3" d="M 212.363281 151.972656 C 213.484375 150.050781 213.585938 147.585938 212.363281 145.496094 L 206.707031 135.746094 L 201.046875 145.496094 C 199.828125 147.554688 199.929688 150.050781 201.046875 151.972656 C 201.589844 152.917969 202.402344 153.761719 203.453125 154.335938 C 204.46875 154.910156 205.589844 155.210938 206.707031 155.179688 C 207.824219 155.179688 208.941406 154.910156 209.957031 154.335938 C 211.007812 153.761719 211.824219 152.953125 212.363281 151.972656 Z M 162.660156 126.9375 C 161.542969 128.863281 161.441406 131.324219 162.660156 133.417969 L 168.320312 143.167969 L 173.976562 133.417969 C 175.164062 131.359375 175.09375 128.863281 173.976562 126.9375 C 173.433594 125.992188 172.621094 125.148438 171.570312 124.578125 C 170.554688 124.003906 169.4375 123.699219 168.320312 123.734375 C 167.199219 123.734375 166.082031 124.003906 165.066406 124.578125 C 164.015625 125.148438 163.203125 125.960938 162.660156 126.9375 Z M 162.660156 126.9375 " fill-opacity="1" fill-rule="evenodd"/><g clip-path="url(#eac2b721c5)"><path fill="#2f81ff" d="M 203.351562 141.617188 L 206.738281 135.777344 L 202.167969 127.882812 L 202.167969 127.847656 L 191.5625 109.597656 C 189.191406 105.511719 185.871094 102.105469 181.769531 99.742188 L 181.398438 99.542969 C 177.398438 97.316406 172.890625 96.203125 168.285156 96.203125 C 163.675781 96.203125 159.171875 97.316406 155.140625 99.542969 L 154.832031 99.710938 C 150.667969 102.105469 147.378906 105.511719 145.007812 109.597656 L 134.402344 127.847656 L 134.402344 127.882812 L 119.425781 153.726562 C 117.632812 156.832031 118.714844 160.78125 121.832031 162.566406 C 124.949219 164.355469 128.914062 163.277344 130.710938 160.171875 L 145.855469 134.058594 L 156.257812 116.109375 C 157.476562 113.980469 159.171875 112.195312 161.304688 110.980469 L 161.542969 110.84375 C 163.574219 109.730469 165.914062 109.226562 168.25 109.226562 C 170.621094 109.226562 172.925781 109.730469 174.992188 110.84375 L 175.195312 110.945312 C 177.363281 112.195312 179.058594 113.980469 180.277344 116.109375 L 190.679688 134.058594 L 200.914062 151.671875 C 199.964844 149.78125 199.929688 147.484375 201.082031 145.527344 Z M 171.671875 137.296875 L 173.941406 133.382812 C 175.09375 131.425781 175.0625 129.097656 174.113281 127.242188 L 184.34375 144.855469 L 194.746094 162.804688 C 195.964844 164.929688 197.660156 166.71875 199.828125 167.964844 L 200.03125 168.066406 C 202.097656 169.214844 204.402344 169.6875 206.773438 169.6875 C 209.144531 169.6875 211.449219 169.179688 213.484375 168.066406 L 213.71875 167.933594 C 215.855469 166.71875 217.546875 164.929688 218.769531 162.804688 L 229.167969 144.855469 L 244.316406 118.738281 C 246.109375 115.636719 250.074219 114.554688 253.191406 116.34375 C 256.308594 118.132812 257.394531 122.078125 255.597656 125.183594 L 240.621094 151.027344 L 240.621094 151.0625 L 230.050781 169.316406 C 227.679688 173.398438 224.359375 176.804688 220.226562 179.203125 L 219.921875 179.371094 C 215.886719 181.632812 211.382812 182.710938 206.773438 182.710938 C 202.167969 182.710938 197.660156 181.597656 193.660156 179.371094 L 193.289062 179.167969 C 189.191406 176.804688 185.871094 173.398438 183.496094 169.316406 L 172.925781 151.0625 L 172.925781 151.027344 L 168.351562 143.132812 Z M 254.683594 102.679688 C 254.683594 106.222656 257.5625 109.089844 261.121094 109.089844 C 264.675781 109.089844 267.558594 106.222656 267.558594 102.679688 C 267.558594 99.136719 264.675781 96.269531 261.121094 96.269531 C 257.5625 96.234375 254.683594 99.136719 254.683594 102.679688 Z M 120.34375 176.234375 C 120.34375 172.691406 117.460938 169.820312 113.90625 169.820312 C 110.347656 169.820312 107.46875 172.691406 107.46875 176.234375 C 107.46875 179.773438 110.347656 182.644531 113.90625 182.644531 C 117.460938 182.644531 120.34375 179.773438 120.34375 176.234375 Z M 120.34375 176.234375 " fill-opacity="1" fill-rule="evenodd"/></g><path fill="#fe4eee" d="M 168.285156 143.132812 L 162.625 133.382812 C 161.40625 131.324219 161.507812 128.828125 162.625 126.90625 L 144.261719 158.554688 L 135.894531 173.0625 C 134.097656 176.164062 135.148438 180.148438 138.265625 181.933594 C 141.382812 183.722656 145.378906 182.675781 147.175781 179.574219 L 155.511719 165.234375 Z M 206.738281 135.777344 L 212.398438 145.527344 C 213.617188 147.585938 213.515625 150.085938 212.398438 152.007812 L 230.761719 120.359375 L 239.164062 105.886719 C 240.960938 102.78125 239.910156 98.800781 236.792969 97.011719 C 233.675781 95.222656 229.679688 96.269531 227.882812 99.371094 L 219.546875 113.710938 Z M 206.738281 135.777344 " fill-opacity="1" fill-rule="evenodd"/><g fill="#10092b" fill-opacity="1"><g transform="translate(81.199218, 239.427054)"><g><path d="M 41.671875 -33.59375 L 49.25 -33.59375 L 38.921875 0 L 32.453125 0 L 24.90625 -18.8125 L 17.65625 0 L 11.1875 0 L 0.578125 -33.59375 L 8.296875 -33.59375 L 14.875 -11.28125 L 23.71875 -33.265625 L 26.15625 -33.265625 L 35.234375 -11.28125 Z M 41.671875 -33.59375 "/></g></g></g><g fill="#10092b" fill-opacity="1"><g transform="translate(131.167129, 239.427054)"><g><path d="M 28.515625 -13.0625 C 28.515625 -12.382812 28.46875 -11.691406 28.375 -10.984375 L 8.78125 -10.984375 C 9.070312 -9.234375 9.773438 -7.882812 10.890625 -6.9375 C 12.015625 -5.988281 13.425781 -5.515625 15.125 -5.515625 C 16.332031 -5.515625 17.414062 -5.78125 18.375 -6.3125 C 19.34375 -6.84375 20.082031 -7.570312 20.59375 -8.5 L 27.984375 -8.5 C 27.023438 -5.675781 25.390625 -3.429688 23.078125 -1.765625 C 20.773438 -0.109375 18.125 0.71875 15.125 0.71875 C 12.5625 0.71875 10.265625 0.117188 8.234375 -1.078125 C 6.203125 -2.273438 4.601562 -3.90625 3.4375 -5.96875 C 2.269531 -8.039062 1.6875 -10.367188 1.6875 -12.953125 C 1.6875 -15.546875 2.269531 -17.875 3.4375 -19.9375 C 4.601562 -22.007812 6.203125 -23.644531 8.234375 -24.84375 C 10.265625 -26.039062 12.5625 -26.640625 15.125 -26.640625 C 17.78125 -26.640625 20.113281 -26.019531 22.125 -24.78125 C 24.144531 -23.550781 25.710938 -21.910156 26.828125 -19.859375 C 27.953125 -17.816406 28.515625 -15.550781 28.515625 -13.0625 Z M 15.125 -20.6875 C 13.550781 -20.6875 12.226562 -20.253906 11.15625 -19.390625 C 10.082031 -18.523438 9.351562 -17.328125 8.96875 -15.796875 L 21.5 -15.796875 C 20.476562 -19.054688 18.351562 -20.6875 15.125 -20.6875 Z M 15.125 -20.6875 "/></g></g></g><g fill="#10092b" fill-opacity="1"><g transform="translate(161.311071, 239.427054)"><g><path d="M 17.46875 -26.640625 C 20.125 -26.640625 22.472656 -26.046875 24.515625 -24.859375 C 26.566406 -23.679688 28.175781 -22.054688 29.34375 -19.984375 C 30.519531 -17.921875 31.109375 -15.578125 31.109375 -12.953125 C 31.109375 -10.335938 30.519531 -7.992188 29.34375 -5.921875 C 28.175781 -3.859375 26.566406 -2.234375 24.515625 -1.046875 C 22.472656 0.128906 20.125 0.71875 17.46875 0.71875 C 15.90625 0.71875 14.429688 0.472656 13.046875 -0.015625 C 11.671875 -0.515625 10.441406 -1.226562 9.359375 -2.15625 L 8.546875 0 L 3.359375 0 L 3.359375 -35.28125 L 10.375 -35.28125 L 10.375 -24.53125 C 11.363281 -25.195312 12.457031 -25.710938 13.65625 -26.078125 C 14.851562 -26.453125 16.125 -26.640625 17.46875 -26.640625 Z M 16.890625 -5.90625 C 18.265625 -5.90625 19.476562 -6.207031 20.53125 -6.8125 C 21.59375 -7.425781 22.425781 -8.265625 23.03125 -9.328125 C 23.644531 -10.398438 23.953125 -11.609375 23.953125 -12.953125 C 23.953125 -14.296875 23.644531 -15.503906 23.03125 -16.578125 C 22.425781 -17.648438 21.59375 -18.5 20.53125 -19.125 C 19.476562 -19.75 18.265625 -20.0625 16.890625 -20.0625 C 15.546875 -20.0625 14.335938 -19.75 13.265625 -19.125 C 12.191406 -18.5 11.351562 -17.648438 10.75 -16.578125 C 10.144531 -15.503906 9.84375 -14.296875 9.84375 -12.953125 C 9.84375 -11.609375 10.144531 -10.410156 10.75 -9.359375 C 11.351562 -8.304688 12.191406 -7.46875 13.265625 -6.84375 C 14.335938 -6.21875 15.546875 -5.90625 16.890625 -5.90625 Z M 16.890625 -5.90625 "/></g></g></g><g fill="#10092b" fill-opacity="1"><g transform="translate(194.095016, 239.427054)"><g><path d="M 23.90625 -26.828125 L 11.140625 -26.828125 L 11.140625 -19.4375 L 22.65625 -19.4375 L 22.65625 -12.859375 L 11.140625 -12.859375 L 11.140625 0 L 3.84375 0 L 3.84375 -33.59375 L 23.90625 -33.59375 Z M 23.90625 -26.828125 "/></g></g></g><g fill="#10092b" fill-opacity="1"><g transform="translate(219.774972, 239.427054)"><g><path d="M 28.515625 -13.0625 C 28.515625 -12.382812 28.46875 -11.691406 28.375 -10.984375 L 8.78125 -10.984375 C 9.070312 -9.234375 9.773438 -7.882812 10.890625 -6.9375 C 12.015625 -5.988281 13.425781 -5.515625 15.125 -5.515625 C 16.332031 -5.515625 17.414062 -5.78125 18.375 -6.3125 C 19.34375 -6.84375 20.082031 -7.570312 20.59375 -8.5 L 27.984375 -8.5 C 27.023438 -5.675781 25.390625 -3.429688 23.078125 -1.765625 C 20.773438 -0.109375 18.125 0.71875 15.125 0.71875 C 12.5625 0.71875 10.265625 0.117188 8.234375 -1.078125 C 6.203125 -2.273438 4.601562 -3.90625 3.4375 -5.96875 C 2.269531 -8.039062 1.6875 -10.367188 1.6875 -12.953125 C 1.6875 -15.546875 2.269531 -17.875 3.4375 -19.9375 C 4.601562 -22.007812 6.203125 -23.644531 8.234375 -24.84375 C 10.265625 -26.039062 12.5625 -26.640625 15.125 -26.640625 C 17.78125 -26.640625 20.113281 -26.019531 22.125 -24.78125 C 24.144531 -23.550781 25.710938 -21.910156 26.828125 -19.859375 C 27.953125 -17.816406 28.515625 -15.550781 28.515625 -13.0625 Z M 15.125 -20.6875 C 13.550781 -20.6875 12.226562 -20.253906 11.15625 -19.390625 C 10.082031 -18.523438 9.351562 -17.328125 8.96875 -15.796875 L 21.5 -15.796875 C 20.476562 -19.054688 18.351562 -20.6875 15.125 -20.6875 Z M 15.125 -20.6875 "/></g></g></g><g fill="#10092b" fill-opacity="1"><g transform="translate(249.918914, 239.427054)"><g><path d="M 28.515625 -13.0625 C 28.515625 -12.382812 28.46875 -11.691406 28.375 -10.984375 L 8.78125 -10.984375 C 9.070312 -9.234375 9.773438 -7.882812 10.890625 -6.9375 C 12.015625 -5.988281 13.425781 -5.515625 15.125 -5.515625 C 16.332031 -5.515625 17.414062 -5.78125 18.375 -6.3125 C 19.34375 -6.84375 20.082031 -7.570312 20.59375 -8.5 L 27.984375 -8.5 C 27.023438 -5.675781 25.390625 -3.429688 23.078125 -1.765625 C 20.773438 -0.109375 18.125 0.71875 15.125 0.71875 C 12.5625 0.71875 10.265625 0.117188 8.234375 -1.078125 C 6.203125 -2.273438 4.601562 -3.90625 3.4375 -5.96875 C 2.269531 -8.039062 1.6875 -10.367188 1.6875 -12.953125 C 1.6875 -15.546875 2.269531 -17.875 3.4375 -19.9375 C 4.601562 -22.007812 6.203125 -23.644531 8.234375 -24.84375 C 10.265625 -26.039062 12.5625 -26.640625 15.125 -26.640625 C 17.78125 -26.640625 20.113281 -26.019531 22.125 -24.78125 C 24.144531 -23.550781 25.710938 -21.910156 26.828125 -19.859375 C 27.953125 -17.816406 28.515625 -15.550781 28.515625 -13.0625 Z M 15.125 -20.6875 C 13.550781 -20.6875 12.226562 -20.253906 11.15625 -19.390625 C 10.082031 -18.523438 9.351562 -17.328125 8.96875 -15.796875 L 21.5 -15.796875 C 20.476562 -19.054688 18.351562 -20.6875 15.125 -20.6875 Z M 15.125 -20.6875 "/></g></g></g><g fill="#10092b" fill-opacity="1"><g transform="translate(280.062867, 239.427054)"><g><path d="M 3.359375 0 L 3.359375 -35.28125 L 10.375 -35.28125 L 10.375 0 Z M 3.359375 0 "/></g></g></g></svg>